<svg width="123" height="32" viewBox="0 0 123 32" fill="none" xmlns="http://www.w3.org/2000/svg">
<path d="M18.875 29.7891C18.875 29.9766 18.8203 30.1328 18.7109 30.2578C18.6016 30.3984 18.4688 30.5078 18.3125 30.5859C18.1562 30.6797 17.9922 30.7578 17.8203 30.8203C17.6484 30.8984 17.5 30.9766 17.375 31.0547C17.0156 30.9766 16.6406 30.9062 16.25 30.8438C15.8594 30.7969 15.5078 30.6953 15.1953 30.5391C14.5547 29.8359 14.1016 29.0234 13.8359 28.1016C13.5859 27.1953 13.4219 26.2891 13.3438 25.3828C13.3125 25.1172 13.2969 24.8594 13.2969 24.6094C13.2969 24.3438 13.2812 24.0781 13.25 23.8125C13.2188 23.5781 13.0781 23.4375 12.8281 23.3906C13.0156 23.3594 13.1484 23.2656 13.2266 23.1094C13.3047 22.9375 13.3516 22.75 13.3672 22.5469C13.3828 22.3281 13.3828 22.1172 13.3672 21.9141C13.3672 21.6953 13.3828 21.5156 13.4141 21.375C13.2891 21.4219 13.1797 21.5312 13.0859 21.7031C12.9922 21.8594 12.9062 22.0391 12.8281 22.2422C12.75 22.4453 12.6719 22.6484 12.5938 22.8516C12.5312 23.0391 12.4688 23.1875 12.4062 23.2969C11.75 24.4219 10.9844 25.4453 10.1094 26.3672C9.25 27.2891 8.35938 28.2031 7.4375 29.1094C7.17188 29.2031 6.92188 29.3203 6.6875 29.4609C6.45312 29.6172 6.23438 29.7812 6.03125 29.9531C5.4375 30.125 4.875 30.2109 4.34375 30.2109C3.85938 30.2109 3.38281 30.1406 2.91406 30C2.44531 29.875 2.02344 29.6562 1.64844 29.3438L0.78125 27.375C0.734375 27.25 0.679688 27.125 0.617188 27C0.554688 26.8594 0.507812 26.7266 0.476562 26.6016C0.445312 26.4609 0.429688 26.3125 0.429688 26.1562C0.445312 25.9844 0.453125 25.8359 0.453125 25.7109C0.453125 25.1641 0.46875 24.6172 0.5 24.0703C0.546875 23.5078 0.609375 22.9531 0.6875 22.4062C0.71875 22.1875 0.765625 21.9609 0.828125 21.7266C0.890625 21.4922 0.9375 21.2656 0.96875 21.0469V20.7891C0.96875 20.7109 0.960938 20.6172 0.945312 20.5078C0.929688 20.3828 0.882812 20.3047 0.804688 20.2734C1.17969 19.3672 1.36719 18.4219 1.36719 17.4375C1.36719 17.2812 1.35938 17.1328 1.34375 16.9922C1.34375 16.8359 1.33594 16.6797 1.32031 16.5234C1.42969 16.4141 1.5 16.2891 1.53125 16.1484C1.5625 15.9922 1.57812 15.8359 1.57812 15.6797C1.57812 15.5078 1.57812 15.3438 1.57812 15.1875C1.59375 15.0312 1.64062 14.8828 1.71875 14.7422C1.70312 14.5703 1.6875 14.4062 1.67188 14.25C1.67188 14.0781 1.67188 13.9062 1.67188 13.7344C1.67188 12.6875 1.75 11.6562 1.90625 10.6406C2.07812 9.60938 2.16406 8.57031 2.16406 7.52344V6.53906C2.16406 6.32031 2.16406 6.09375 2.16406 5.85938C2.17969 5.625 2.21094 5.39844 2.25781 5.17969C2.32031 4.96094 2.40625 4.75781 2.51562 4.57031C2.625 4.36719 2.78125 4.19531 2.98438 4.05469C3.01562 4.05469 3.03906 4.05469 3.05469 4.05469C3.08594 4.03906 3.11719 4.03125 3.14844 4.03125C3.28906 4.03125 3.39844 4.07031 3.47656 4.14844C3.55469 4.21094 3.67188 4.23438 3.82812 4.21875C4.10938 4.625 4.32812 5.05469 4.48438 5.50781C4.65625 5.96094 4.74219 6.4375 4.74219 6.9375C4.74219 7.3125 4.6875 7.67969 4.57812 8.03906C4.46875 8.39844 4.41406 8.77344 4.41406 9.16406C4.41406 9.32031 4.42188 9.47656 4.4375 9.63281C4.45312 9.78906 4.46094 9.94531 4.46094 10.1016C4.46094 10.2578 4.4375 10.4141 4.39062 10.5703C4.35938 10.7109 4.28906 10.8359 4.17969 10.9453C4.21094 11.2578 4.23438 11.5781 4.25 11.9062C4.26562 12.2188 4.27344 12.5312 4.27344 12.8438C4.27344 13.7344 4.21875 14.625 4.10938 15.5156C4 16.4062 3.875 17.2969 3.73438 18.1875C3.59375 19.0781 3.46875 19.9688 3.35938 20.8594C3.25 21.75 3.19531 22.6484 3.19531 23.5547V24.2344C3.19531 24.4531 3.21094 24.6797 3.24219 24.9141C3.14844 25.1328 3.10156 25.3672 3.10156 25.6172C3.10156 25.9609 3.17969 26.2969 3.33594 26.625C3.49219 26.9531 3.67969 27.25 3.89844 27.5156C3.97656 27.5312 4.04688 27.5391 4.10938 27.5391C4.1875 27.5547 4.26562 27.5625 4.34375 27.5625C4.75 27.5625 5.10938 27.4766 5.42188 27.3047C5.75 27.1328 6.05469 26.9219 6.33594 26.6719C6.63281 26.4219 6.92188 26.1641 7.20312 25.8984C7.48438 25.6328 7.78906 25.4141 8.11719 25.2422C8.61719 24.6016 9.08594 23.9609 9.52344 23.3203C9.96094 22.6641 10.3828 21.9844 10.7891 21.2812C10.8203 20.9062 10.9141 20.5312 11.0703 20.1562C11.2422 19.7656 11.4141 19.3828 11.5859 19.0078C11.7734 18.6328 11.9375 18.2656 12.0781 17.9062C12.2344 17.5469 12.3125 17.2031 12.3125 16.875C12.3125 16.7031 12.2578 16.5859 12.1484 16.5234C12.3047 16.1172 12.4219 15.6953 12.5 15.2578C12.5781 14.8203 12.6406 14.3828 12.6875 13.9453C12.75 13.5078 12.8125 13.0781 12.875 12.6562C12.9375 12.2188 13.0312 11.7891 13.1562 11.3672C13.1562 11.2734 13.1484 11.1797 13.1328 11.0859C13.1328 10.9922 13.1328 10.8984 13.1328 10.8047C13.1328 10.0859 13.2031 9.38281 13.3438 8.69531C13.4844 7.99219 13.5547 7.28125 13.5547 6.5625C13.5547 6.39062 13.5391 6.23438 13.5078 6.09375C13.4922 5.9375 13.4844 5.78906 13.4844 5.64844C13.4844 5.52344 13.5234 5.44531 13.6016 5.41406C13.6953 5.38281 13.7422 5.29688 13.7422 5.15625C13.7422 5.03125 13.7266 4.89844 13.6953 4.75781C13.6797 4.61719 13.6719 4.46875 13.6719 4.3125C13.6719 3.82812 13.7188 3.35156 13.8125 2.88281C13.9062 2.41406 13.9531 1.9375 13.9531 1.45312V1.17188C13.9531 1.0625 13.9375 0.960938 13.9062 0.867188C14.0156 0.695313 14.1641 0.585938 14.3516 0.539062C14.5391 0.476562 14.7188 0.445312 14.8906 0.445312C15.1719 0.445312 15.4062 0.476562 15.5938 0.539062C15.8906 1.33594 16.1406 2.15625 16.3438 3C16.5469 3.82812 16.7109 4.67188 16.8359 5.53125C16.8672 5.73438 16.9062 5.95312 16.9531 6.1875C17.0156 6.40625 17.0469 6.625 17.0469 6.84375C17.0469 6.89062 17.0312 6.94531 17 7.00781C16.9844 7.07031 16.9688 7.13281 16.9531 7.19531C16.9375 7.32031 16.9219 7.44531 16.9062 7.57031C16.9062 7.69531 16.9062 7.82031 16.9062 7.94531C16.9062 8.32031 16.9297 8.69531 16.9766 9.07031C17.0234 9.44531 17.0469 9.82812 17.0469 10.2188C17.0469 10.6562 16.9844 11.0781 16.8594 11.4844C16.75 11.875 16.6641 12.2891 16.6016 12.7266C16.5391 13.1797 16.5156 13.625 16.5312 14.0625C16.5469 14.5 16.5156 14.9453 16.4375 15.3984C16.4062 15.5859 16.3594 15.7734 16.2969 15.9609C16.2344 16.1328 16.2031 16.3203 16.2031 16.5234C16.2031 16.6641 16.2109 16.8047 16.2266 16.9453C16.2578 17.0859 16.2734 17.2344 16.2734 17.3906C16.2734 17.625 16.2188 17.8047 16.1094 17.9297C16.1406 18.0547 16.1641 18.1719 16.1797 18.2812C16.1953 18.375 16.2266 18.4844 16.2734 18.6094C16.1953 18.7031 16.1406 18.8047 16.1094 18.9141C16.0781 19.0234 16.0625 19.1406 16.0625 19.2656C16.0625 19.4219 16.0703 19.5703 16.0859 19.7109C16.1016 19.8359 16.1094 19.9688 16.1094 20.1094C16.1094 20.4375 16.0547 20.75 15.9453 21.0469C15.8516 21.3438 15.7891 21.6484 15.7578 21.9609C15.7422 22.1797 15.7344 22.3984 15.7344 22.6172C15.75 22.8203 15.7578 23.0312 15.7578 23.25C15.7578 23.4844 15.7422 23.7109 15.7109 23.9297C15.6953 24.1484 15.6328 24.3672 15.5234 24.5859C15.5547 24.6797 15.5938 24.7734 15.6406 24.8672C15.6875 24.9609 15.7578 25.0312 15.8516 25.0781C15.8516 25.5625 15.9141 26.0547 16.0391 26.5547C16.1797 27.0391 16.3672 27.5 16.6016 27.9375C16.6484 28.0312 16.7188 28.1016 16.8125 28.1484C16.9062 28.1953 16.9922 28.2422 17.0703 28.2891C17.1484 28.3516 17.2109 28.4219 17.2578 28.5C17.3047 28.5781 17.3125 28.6953 17.2812 28.8516C17.3125 28.8672 17.3594 28.875 17.4219 28.875C17.5469 28.875 17.6484 28.8438 17.7266 28.7812C17.8203 28.7188 17.9297 28.6875 18.0547 28.6875H18.2188C18.3594 28.8281 18.5 28.9922 18.6406 29.1797C18.7969 29.3672 18.875 29.5703 18.875 29.7891ZM35.5625 11.6016C35.5312 11.7891 35.4844 11.9531 35.4219 12.0938C35.375 12.2188 35.3672 12.3906 35.3984 12.6094C35.2422 12.625 35.1172 12.6797 35.0234 12.7734C34.9453 12.8516 34.875 12.9453 34.8125 13.0547C34.7656 13.1641 34.7109 13.2812 34.6484 13.4062C34.6016 13.5156 34.5391 13.6172 34.4609 13.7109C34.5859 14.2734 34.6562 14.8438 34.6719 15.4219C34.6875 16 34.7266 16.5703 34.7891 17.1328C34.8672 17.8516 34.9844 18.5625 35.1406 19.2656C35.3125 19.9531 35.3984 20.6562 35.3984 21.375C35.3984 21.5938 35.3906 21.7969 35.375 21.9844C35.375 22.1719 35.375 22.3672 35.375 22.5703C35.375 22.6953 35.375 22.8281 35.375 22.9688C35.3906 23.0938 35.3984 23.2188 35.3984 23.3438C35.3984 23.7969 35.3359 24.25 35.2109 24.7031C35.1016 25.1562 35.0156 25.6094 34.9531 26.0625C34.7656 26.2344 34.6016 26.4219 34.4609 26.625C34.3359 26.8281 34.2031 27.0156 34.0625 27.1875C33.9219 27.3594 33.7578 27.5078 33.5703 27.6328C33.3828 27.7734 33.1484 27.8672 32.8672 27.9141C32.8203 28.0703 32.7266 28.1875 32.5859 28.2656C32.4609 28.3438 32.3516 28.4531 32.2578 28.5938H32.2109C31.8203 28.5938 31.4844 28.5391 31.2031 28.4297C30.9219 28.3203 30.6562 28.1953 30.4062 28.0547C30.1719 27.9141 29.9297 27.7656 29.6797 27.6094C29.4297 27.4531 29.1406 27.3281 28.8125 27.2344C28.375 26.875 27.9766 26.4844 27.6172 26.0625C27.2578 25.625 26.8516 25.2344 26.3984 24.8906C26.2891 24.5781 26.1406 24.3203 25.9531 24.1172C25.7812 23.9141 25.6094 23.6797 25.4375 23.4141C25.3594 23.3047 25.2969 23.2031 25.25 23.1094C25.2188 23.0156 25.1719 22.9062 25.1094 22.7812C25.0625 22.6562 24.9844 22.5703 24.875 22.5234C24.7812 22.4766 24.6953 22.4219 24.6172 22.3594C24.4922 21.875 24.3125 21.4297 24.0781 21.0234C23.8438 20.6172 23.5703 20.2266 23.2578 19.8516C23.1641 20.0234 23.0859 20.2109 23.0234 20.4141C22.9766 20.6016 22.9297 20.7969 22.8828 21C22.8359 21.1875 22.7734 21.3828 22.6953 21.5859C22.6328 21.7734 22.5469 21.9453 22.4375 22.1016V22.1719C22.4375 22.25 22.4688 22.2969 22.5312 22.3125C22.5938 22.3281 22.625 22.375 22.625 22.4531C22.625 22.4688 22.6172 22.4844 22.6016 22.5C22.6016 22.5156 22.6016 22.5312 22.6016 22.5469C22.5234 22.6094 22.4609 22.6875 22.4141 22.7812C22.3828 22.875 22.3047 22.9297 22.1797 22.9453C22.1953 23.0234 22.2031 23.1016 22.2031 23.1797V23.3906C22.2031 23.8438 22.1484 24.2969 22.0391 24.75C21.9453 25.2031 21.8984 25.6641 21.8984 26.1328V26.4375C21.8984 26.5469 21.9062 26.6484 21.9219 26.7422C21.9531 26.8359 22 26.9297 22.0625 27.0234C22.125 27.1172 22.1562 27.2031 22.1562 27.2812C22.1562 27.3906 22.1094 27.4922 22.0156 27.5859C22.125 27.6641 22.25 27.75 22.3906 27.8438C22.5312 27.9375 22.6562 28.0391 22.7656 28.1484C22.8906 28.2734 22.9922 28.3984 23.0703 28.5234C23.1484 28.6641 23.1875 28.8125 23.1875 28.9688C23.1875 29.2344 23.1016 29.4219 22.9297 29.5312C22.7578 29.6406 22.5469 29.7266 22.2969 29.7891C22.0625 29.8516 21.8125 29.9062 21.5469 29.9531C21.2969 30.0156 21.0859 30.1172 20.9141 30.2578H20.8438C20.6562 30.2578 20.5156 30.2031 20.4219 30.0938C20.3281 29.9844 20.1875 29.9297 20 29.9297C19.7031 29.4453 19.5 28.8984 19.3906 28.2891C19.2812 27.6953 19.2266 27.125 19.2266 26.5781C19.2266 25.9062 19.2891 25.2344 19.4141 24.5625C19.5234 23.8906 19.6641 23.2266 19.8359 22.5703C19.9922 21.9141 20.1641 21.2656 20.3516 20.625C20.5547 19.9688 20.7422 19.3125 20.9141 18.6562L20.9375 18.5859C20.9375 18.5078 20.9141 18.4531 20.8672 18.4219C20.8359 18.3906 20.8203 18.3438 20.8203 18.2812C20.8203 18.25 20.8281 18.2344 20.8438 18.2344C20.8906 18.0781 20.9375 17.9297 20.9844 17.7891C21.0469 17.6484 21.0938 17.4922 21.125 17.3203C21.2188 16.8828 21.2812 16.4375 21.3125 15.9844C21.3594 15.5156 21.3828 15.0547 21.3828 14.6016C21.3984 14.1484 21.4141 13.6953 21.4297 13.2422C21.4609 12.7734 21.5156 12.3125 21.5938 11.8594C21.7188 11.7344 21.8359 11.6016 21.9453 11.4609C22.0547 11.3203 22.1953 11.1953 22.3672 11.0859C22.6797 11.1016 22.9922 11.1484 23.3047 11.2266C23.6172 11.3047 23.9141 11.4297 24.1953 11.6016C24.3828 12.2734 24.5078 12.9453 24.5703 13.6172C24.6484 14.2891 24.7734 14.9609 24.9453 15.6328V15.7031C24.9453 15.7812 24.9844 15.8203 25.0625 15.8203C25.1562 15.8047 25.2266 15.8281 25.2734 15.8906C25.2422 15.9375 25.2188 15.9922 25.2031 16.0547C25.2031 16.1172 25.2031 16.1797 25.2031 16.2422V16.6406C25.2344 16.7656 25.2734 16.8984 25.3203 17.0391C25.3672 17.1797 25.4688 17.2656 25.625 17.2969C25.7031 17.7969 25.8203 18.2578 25.9766 18.6797C26.1328 19.1016 26.3125 19.5078 26.5156 19.8984C26.7188 20.2891 26.9375 20.6797 27.1719 21.0703C27.4062 21.4453 27.6484 21.8438 27.8984 22.2656C28.2891 22.5625 28.625 22.9062 28.9062 23.2969C29.1875 23.6719 29.4688 24.0391 29.75 24.3984C30.0469 24.7422 30.375 25.0469 30.7344 25.3125C31.1094 25.5781 31.5938 25.7422 32.1875 25.8047C32.2656 25.7422 32.3203 25.6562 32.3516 25.5469L32.4688 25.2188C32.5156 25.1094 32.5625 25.0156 32.6094 24.9375C32.6719 24.8438 32.7578 24.7734 32.8672 24.7266C32.8984 24.2891 32.9297 23.8438 32.9609 23.3906C33.0078 22.9375 33.1094 22.5078 33.2656 22.1016C33.1875 21.9609 33.1484 21.7891 33.1484 21.5859C33.1484 21.4297 33.1562 21.2812 33.1719 21.1406C33.2031 21 33.2188 20.8594 33.2188 20.7188C33.2188 20.4219 33.1562 20.1797 33.0312 19.9922C33.0312 19.8828 33.0391 19.7734 33.0547 19.6641C33.0703 19.5391 33.1172 19.4219 33.1953 19.3125C33.0703 19 32.9688 18.6719 32.8906 18.3281C32.8281 17.9844 32.7969 17.6328 32.7969 17.2734C32.7969 17.0703 32.8203 16.8594 32.8672 16.6406C32.7734 16.4062 32.7109 16.1328 32.6797 15.8203L32.5859 14.8594C32.5547 14.5312 32.5078 14.2266 32.4453 13.9453C32.3828 13.6641 32.2656 13.4375 32.0938 13.2656C32.1875 13.125 32.2344 12.9609 32.2344 12.7734C32.2344 12.4609 32.1875 12.1641 32.0938 11.8828C32 11.6016 31.9531 11.3047 31.9531 10.9922C31.9531 10.7734 32 10.5547 32.0938 10.3359C32.4375 10.3516 32.7734 10.3906 33.1016 10.4531C33.4453 10.5 33.7812 10.5234 34.1094 10.5234C34.2031 10.6484 34.3125 10.75 34.4375 10.8281C34.5625 10.9062 34.6953 10.9844 34.8359 11.0625C34.9766 11.125 35.1094 11.1953 35.2344 11.2734C35.375 11.3516 35.4844 11.4609 35.5625 11.6016ZM44.6562 28.1719C44.6562 28.4219 44.5703 28.6484 44.3984 28.8516C44.2266 29.0547 44.0781 29.25 43.9531 29.4375C43.7344 29.5469 43.5234 29.6094 43.3203 29.625C43.1328 29.6562 42.9297 29.7109 42.7109 29.7891C42.6328 29.8047 42.5469 29.8594 42.4531 29.9531C42.3281 29.9375 42.2031 29.8828 42.0781 29.7891C41.9531 29.7109 41.8281 29.6562 41.7031 29.625C41.5312 29.5625 41.3047 29.5234 41.0234 29.5078C40.7578 29.4922 40.5625 29.4141 40.4375 29.2734C40.2188 29.0547 40.0312 28.7656 39.875 28.4062C39.7344 28.0469 39.6172 27.6641 39.5234 27.2578C39.4453 26.8516 39.3828 26.4531 39.3359 26.0625C39.3047 25.6562 39.2891 25.3047 39.2891 25.0078C39.2891 24.5078 39.3203 24.0078 39.3828 23.5078C39.4453 23.0078 39.5391 22.5234 39.6641 22.0547V21.9375C39.6641 21.8594 39.6641 21.7969 39.6641 21.75C39.6797 21.6875 39.6875 21.6172 39.6875 21.5391C39.6875 21.4922 39.6797 21.4453 39.6641 21.3984C39.6641 21.3516 39.6406 21.3125 39.5938 21.2812C39.7969 20.7656 39.9453 20.2344 40.0391 19.6875C40.1328 19.1406 40.2031 18.5938 40.25 18.0469C40.3125 17.4844 40.375 16.9297 40.4375 16.3828C40.5156 15.8203 40.625 15.2734 40.7656 14.7422C40.75 14.6484 40.7344 14.5469 40.7188 14.4375C40.7188 14.3281 40.7188 14.2266 40.7188 14.1328C40.7188 13.8516 40.75 13.5781 40.8125 13.3125C40.875 13.0312 40.9141 12.7422 40.9297 12.4453C40.9453 12.3516 40.9453 12.2578 40.9297 12.1641C40.9141 12.0547 40.9062 11.9453 40.9062 11.8359C40.9062 11.1484 40.9375 10.4766 41 9.82031C41.0781 9.16406 41.1172 8.5 41.1172 7.82812C41.1172 7.46875 41.0859 7.125 41.0234 6.79688C40.9766 6.45312 40.9531 6.10938 40.9531 5.76562C40.9531 5.60938 40.9609 5.46094 40.9766 5.32031C40.9922 5.16406 41.0391 5.02344 41.1172 4.89844C41.4609 4.66406 41.8672 4.54688 42.3359 4.54688C42.6797 4.54688 42.9766 4.64062 43.2266 4.82812C43.2109 4.85938 43.2031 4.90625 43.2031 4.96875C43.2031 5.04688 43.2109 5.11719 43.2266 5.17969C43.2422 5.24219 43.25 5.3125 43.25 5.39062V5.48438C43.25 5.51562 43.2422 5.54688 43.2266 5.57812C43.3359 5.76562 43.4062 5.96875 43.4375 6.1875C43.4844 6.39062 43.5078 6.60156 43.5078 6.82031C43.5078 7.02344 43.5 7.22656 43.4844 7.42969C43.4688 7.61719 43.4609 7.8125 43.4609 8.01562C43.4609 8.29688 43.4609 8.57812 43.4609 8.85938C43.4766 9.14062 43.4844 9.42188 43.4844 9.70312C43.4844 10.4531 43.4453 11.1953 43.3672 11.9297C43.3047 12.6484 43.2578 13.3828 43.2266 14.1328C43.1953 14.7734 43.1094 15.3984 42.9688 16.0078C42.8438 16.6172 42.7578 17.2344 42.7109 17.8594C42.6953 17.9844 42.6875 18.1094 42.6875 18.2344C42.7031 18.3438 42.7109 18.4688 42.7109 18.6094C42.7109 18.9688 42.6406 19.3281 42.5 19.6875C42.3594 20.0312 42.2891 20.3984 42.2891 20.7891C42.2891 20.9766 42.3203 21.1406 42.3828 21.2812C42.2891 21.5312 42.2031 21.8281 42.125 22.1719C42.0625 22.5156 42 22.875 41.9375 23.25C41.8906 23.6094 41.8516 23.9688 41.8203 24.3281C41.7891 24.6719 41.7734 24.9766 41.7734 25.2422C41.7734 25.6172 41.8203 26 41.9141 26.3906C42.0078 26.7656 42.1641 27.1094 42.3828 27.4219C42.5391 27.4688 42.7266 27.4922 42.9453 27.4922C43.1641 27.4922 43.3828 27.5 43.6016 27.5156C43.8203 27.5312 44.0234 27.5703 44.2109 27.6328C44.3984 27.6953 44.5391 27.8203 44.6328 28.0078C44.6484 28.0391 44.6562 28.0703 44.6562 28.1016V28.1719ZM63.2891 20.0391C63.1328 20.0547 62.9922 20.0938 62.8672 20.1562C62.7578 20.2188 62.6406 20.2656 62.5156 20.2969C62.5312 20.3125 62.5391 20.3359 62.5391 20.3672C62.5391 20.4609 62.5156 20.5312 62.4688 20.5781C62.4219 20.6094 62.4141 20.6875 62.4453 20.8125C62.2109 20.9375 61.9688 21.0312 61.7188 21.0938C61.4688 21.1562 61.2109 21.2109 60.9453 21.2578C60.6953 21.3047 60.4453 21.3594 60.1953 21.4219C59.9453 21.4844 59.7109 21.5859 59.4922 21.7266V21.4688C59.3047 21.5781 59.125 21.6328 58.9531 21.6328C58.7969 21.6328 58.6484 21.6094 58.5078 21.5625C58.3672 21.5 58.2109 21.4688 58.0391 21.4688C57.9609 21.4688 57.8594 21.5 57.7344 21.5625C57.5781 21.5469 57.4531 21.5078 57.3594 21.4453C57.2812 21.3672 57.1797 21.2891 57.0547 21.2109C56.9766 21.3672 56.8594 21.4688 56.7031 21.5156C56.5625 21.5469 56.4297 21.5625 56.3047 21.5625C56.1328 21.5625 55.9688 21.5547 55.8125 21.5391C55.6719 21.5234 55.5312 21.5 55.3906 21.4688C55.1406 21.5469 54.9062 21.5938 54.6875 21.6094C54.4688 21.6094 54.2344 21.6094 53.9844 21.6094C53.7656 21.6094 53.5547 21.625 53.3516 21.6562C53.1641 21.6719 52.9688 21.7266 52.7656 21.8203C52.7031 21.6641 52.5703 21.5859 52.3672 21.5859C52.2734 21.5859 52.1719 21.5938 52.0625 21.6094C51.9688 21.6094 51.875 21.6094 51.7812 21.6094C51.625 21.6094 51.5078 21.5625 51.4297 21.4688C51.3672 21.5 51.3359 21.5547 51.3359 21.6328C51.3516 21.7109 51.3516 21.7734 51.3359 21.8203C51.1016 21.7266 50.8516 21.6797 50.5859 21.6797C50.3672 21.6797 50.1562 21.7031 49.9531 21.75C49.75 21.7969 49.5469 21.8203 49.3438 21.8203C49.2344 21.8203 49.125 21.8047 49.0156 21.7734C48.9062 21.7422 48.8125 21.7266 48.7344 21.7266C48.6406 21.7266 48.5703 21.75 48.5234 21.7969C48.4766 21.8281 48.4297 21.8672 48.3828 21.9141C48.3516 21.9453 48.3047 21.9844 48.2422 22.0312C48.1953 22.0625 48.125 22.0781 48.0312 22.0781C47.8594 22.0781 47.7422 22.0312 47.6797 21.9375C47.6172 21.8281 47.5234 21.7578 47.3984 21.7266C47.3984 21.5703 47.375 21.4297 47.3281 21.3047C47.2812 21.1797 47.2266 21.0547 47.1641 20.9297C47.1016 20.7891 47.0469 20.6562 47 20.5312C46.9531 20.4062 46.9297 20.2656 46.9297 20.1094C46.9297 20.0625 46.9297 20.0156 46.9297 19.9688C46.9453 19.9062 46.9531 19.8516 46.9531 19.8047C47.1719 19.4922 47.4844 19.2734 47.8906 19.1484C48.3125 19.0078 48.6953 18.9375 49.0391 18.9375C49.2109 18.9375 49.3359 18.9688 49.4141 19.0312C49.5078 19.0938 49.6172 19.1797 49.7422 19.2891C50.8359 19.1641 51.9297 19.0781 53.0234 19.0312C54.1328 18.9844 55.2344 18.9297 56.3281 18.8672C56.6875 18.8359 57.0469 18.8125 57.4062 18.7969C57.7656 18.7656 58.125 18.7344 58.4844 18.7031C58.5312 18.7031 58.5625 18.6875 58.5781 18.6562C58.5938 18.6094 58.6016 18.5625 58.6016 18.5156C58.6172 18.4688 58.6328 18.4297 58.6484 18.3984C58.6797 18.3672 58.7266 18.3516 58.7891 18.3516C58.9609 18.3516 59.0781 18.4062 59.1406 18.5156C59.2031 18.6094 59.2969 18.6719 59.4219 18.7031C59.5312 18.6406 59.6562 18.5938 59.7969 18.5625C59.9531 18.5312 60.1016 18.5078 60.2422 18.4922C60.3828 18.4609 60.5156 18.4297 60.6406 18.3984C60.7812 18.3516 60.8984 18.2812 60.9922 18.1875C61.1172 18.1719 61.1875 18.2031 61.2031 18.2812C61.2188 18.3438 61.2656 18.3906 61.3438 18.4219C61.4219 18.4062 61.5078 18.3906 61.6016 18.375C61.6953 18.3438 61.7812 18.3281 61.8594 18.3281H62.0234C62.0859 18.3281 62.1406 18.3359 62.1875 18.3516C62.3281 18.6641 62.5078 18.9453 62.7266 19.1953C62.9609 19.4453 63.1484 19.7266 63.2891 20.0391ZM88.5781 21.6328C88.5781 21.9453 88.5234 22.2031 88.4141 22.4062C88.3203 22.5938 88.2109 22.8125 88.0859 23.0625C88.0547 23.0469 88.0156 23.0391 87.9688 23.0391C87.875 23.0391 87.7891 23.0625 87.7109 23.1094C87.6328 23.1562 87.5547 23.1953 87.4766 23.2266C87.0234 23.7266 86.5547 24.2109 86.0703 24.6797C85.6016 25.1484 85.0781 25.5625 84.5 25.9219C84.3438 26.0156 84.1875 26.1094 84.0312 26.2031C83.875 26.2812 83.7109 26.3594 83.5391 26.4375C83.4766 26.4688 83.4141 26.5 83.3516 26.5312C83.3047 26.5469 83.2578 26.5703 83.2109 26.6016C83.1016 26.6641 82.9844 26.7656 82.8594 26.9062C82.75 27.0469 82.6172 27.1875 82.4609 27.3281C82.3203 27.4844 82.1641 27.6094 81.9922 27.7031C81.8203 27.8125 81.6328 27.8594 81.4297 27.8438C81.3047 27.9219 81.1953 28.0234 81.1016 28.1484C81.0078 28.2734 80.8984 28.3984 80.7734 28.5234C80.1016 28.7578 79.4844 29.0625 78.9219 29.4375C78.375 29.8281 77.8047 30.2031 77.2109 30.5625C76.8516 30.7969 76.4922 30.9844 76.1328 31.125C76.0547 31.1562 75.9609 31.1797 75.8516 31.1953C75.7578 31.2109 75.6562 31.2344 75.5469 31.2656C75.0312 31.3906 74.5078 31.4922 73.9766 31.5703C73.4609 31.6484 72.9375 31.6875 72.4062 31.6875C71.75 31.6875 71.1172 31.6094 70.5078 31.4531C70.5078 31.4062 70.4922 31.375 70.4609 31.3594C70.4297 31.3438 70.3906 31.3281 70.3438 31.3125C70.3125 31.2969 70.2812 31.2734 70.25 31.2422C70.2188 31.2266 70.2188 31.1875 70.25 31.125C69.9062 31.0938 69.6016 31.0078 69.3359 30.8672C69.0859 30.7266 68.9219 30.4766 68.8438 30.1172C68.7969 30.1484 68.7578 30.1875 68.7266 30.2344C68.6953 30.2812 68.6406 30.2969 68.5625 30.2812C68.3438 29.9688 68.1016 29.6797 67.8359 29.4141C67.5703 29.1484 67.375 28.8281 67.25 28.4531C67.2188 28.375 67.1953 28.2969 67.1797 28.2188C67.1797 28.1562 67.1719 28.0859 67.1562 28.0078C67.0781 27.7891 66.9375 27.6797 66.7344 27.6797C66.7656 27.6172 66.7812 27.5391 66.7812 27.4453C66.7812 27.3984 66.7734 27.3516 66.7578 27.3047C66.7578 27.2578 66.7578 27.2109 66.7578 27.1641C66.7578 27.0859 66.7812 27.0078 66.8281 26.9297C66.6719 26.5703 66.5625 26.2188 66.5 25.875C66.4375 25.5156 66.4062 25.1484 66.4062 24.7734C66.4062 24.2891 66.4297 23.8125 66.4766 23.3438C66.5234 22.8594 66.5469 22.375 66.5469 21.8906C66.6406 21.7031 66.7109 21.4844 66.7578 21.2344C66.8203 20.9844 66.9219 20.7812 67.0625 20.625C67.0469 20.5312 67.0156 20.4844 66.9688 20.4844C66.9219 20.4688 66.8984 20.4219 66.8984 20.3438C66.8984 20.0625 66.9531 19.7578 67.0625 19.4297C67.1719 19.1016 67.2266 18.7656 67.2266 18.4219C67.3672 18.3438 67.4531 18.2266 67.4844 18.0703C67.5312 17.9141 67.6172 17.7891 67.7422 17.6953V17.5781C67.7422 17.3438 67.7656 17.1094 67.8125 16.875C67.875 16.6406 67.9297 16.4141 67.9766 16.1953C68.0391 15.9609 68.0859 15.7344 68.1172 15.5156C68.1641 15.2812 68.1797 15.0547 68.1641 14.8359C68.1953 14.7891 68.2344 14.7031 68.2812 14.5781C68.3438 14.4375 68.3984 14.2969 68.4453 14.1562C68.5078 14 68.5547 13.8516 68.5859 13.7109C68.6328 13.5703 68.6562 13.4688 68.6562 13.4062C68.6562 13.3125 68.6406 13.2266 68.6094 13.1484C68.5781 13.0703 68.5625 12.9844 68.5625 12.8906C68.5625 12.8125 68.5859 12.7031 68.6328 12.5625C68.6797 12.4062 68.7188 12.2812 68.75 12.1875C68.8125 11.9219 68.8672 11.6484 68.9141 11.3672C68.9766 11.0703 69.0312 10.7891 69.0781 10.5234C69.2188 9.66406 69.3203 8.80469 69.3828 7.94531C69.4453 7.07031 69.4844 6.19531 69.5 5.32031C69.7188 5.19531 69.9453 5.07812 70.1797 4.96875C70.4297 4.85938 70.6875 4.80469 70.9531 4.80469C71.0312 4.80469 71.1094 4.8125 71.1875 4.82812C71.2656 4.84375 71.3438 4.86719 71.4219 4.89844C71.5 5.21094 71.625 5.46094 71.7969 5.64844C71.9688 5.83594 72.125 6.0625 72.2656 6.32812C72.1719 6.57812 72.1094 6.83594 72.0781 7.10156L72.0078 7.89844C71.9922 8.16406 71.9609 8.42969 71.9141 8.69531C71.8672 8.94531 71.7891 9.1875 71.6797 9.42188C71.7109 9.5 71.7266 9.57812 71.7266 9.65625V9.89062C71.7266 10.1094 71.7031 10.3203 71.6562 10.5234C71.625 10.7266 71.5859 10.9375 71.5391 11.1562C71.4922 11.3594 71.4531 11.5625 71.4219 11.7656C71.3906 11.9688 71.3906 12.1719 71.4219 12.375C71.375 12.4531 71.3281 12.5156 71.2812 12.5625C71.2344 12.5938 71.2031 12.6484 71.1875 12.7266L71.1406 13.1719C71.1094 13.3438 71.0781 13.5156 71.0469 13.6875C71.0312 13.8438 71.0078 14.0078 70.9766 14.1797C70.8672 14.6484 70.7422 15.1172 70.6016 15.5859C70.4766 16.0547 70.4141 16.5391 70.4141 17.0391V17.1797C70.2734 17.3984 70.1641 17.6719 70.0859 18C70.0078 18.3125 69.9844 18.6016 70.0156 18.8672C69.8438 19.3203 69.6797 19.7656 69.5234 20.2031C69.3672 20.6406 69.2891 21.0938 69.2891 21.5625C69.2891 21.6406 69.2891 21.7266 69.2891 21.8203C69.3047 21.8984 69.3203 21.9766 69.3359 22.0547C69.2109 22.3672 69.1328 22.6875 69.1016 23.0156C69.0703 23.3281 69.0547 23.6406 69.0547 23.9531C69.0547 24.1719 69.0625 24.4297 69.0781 24.7266C69.1094 25.0078 69.1484 25.3047 69.1953 25.6172C69.2578 25.9141 69.3281 26.2031 69.4062 26.4844C69.4844 26.7656 69.5703 26.9922 69.6641 27.1641C70.0234 27.7422 70.4922 28.1953 71.0703 28.5234C71.6641 28.8672 72.2891 29.0859 72.9453 29.1797C73.2109 29.0859 73.4219 29.0312 73.5781 29.0156C73.75 29 73.9844 29 74.2812 29.0156C74.5312 28.8906 74.7812 28.7969 75.0312 28.7344C75.2969 28.6719 75.5625 28.6016 75.8281 28.5234C75.9062 28.4922 75.9844 28.4609 76.0625 28.4297C76.1562 28.3984 76.2344 28.3672 76.2969 28.3359C76.375 28.3047 76.4609 28.2344 76.5547 28.125C76.6484 28.0156 76.7344 27.9219 76.8125 27.8438C77.1406 27.75 77.4531 27.6172 77.75 27.4453C78.0469 27.2891 78.3359 27.125 78.6172 26.9531L79.4844 26.4375C79.7812 26.2656 80.0938 26.1172 80.4219 25.9922C80.5469 25.9453 80.6172 25.8828 80.6328 25.8047C80.6641 25.7109 80.7109 25.6016 80.7734 25.4766C80.8047 25.5078 80.8516 25.5234 80.9141 25.5234C81.1016 25.5234 81.2344 25.4688 81.3125 25.3594C81.3906 25.2344 81.4844 25.1094 81.5938 24.9844C81.7969 24.9531 81.9922 24.8984 82.1797 24.8203C82.3672 24.7266 82.5078 24.5859 82.6016 24.3984C82.9922 24.3203 83.3359 24.1797 83.6328 23.9766C83.9297 23.7734 84.2188 23.5547 84.5 23.3203C84.7812 23.0703 85.0625 22.8359 85.3438 22.6172C85.625 22.3828 85.9453 22.1953 86.3047 22.0547C86.3516 21.9766 86.3828 21.9062 86.3984 21.8438C86.4141 21.7812 86.4375 21.7109 86.4688 21.6328C86.7344 21.6016 86.9453 21.5312 87.1016 21.4219C87.2578 21.2969 87.4375 21.1719 87.6406 21.0469C88.0781 21.0938 88.3906 21.2891 88.5781 21.6328ZM93.0078 28.1719C93.0078 28.4219 92.9219 28.6484 92.75 28.8516C92.5781 29.0547 92.4297 29.25 92.3047 29.4375C92.0859 29.5469 91.875 29.6094 91.6719 29.625C91.4844 29.6562 91.2812 29.7109 91.0625 29.7891C90.9844 29.8047 90.8984 29.8594 90.8047 29.9531C90.6797 29.9375 90.5547 29.8828 90.4297 29.7891C90.3047 29.7109 90.1797 29.6562 90.0547 29.625C89.8828 29.5625 89.6562 29.5234 89.375 29.5078C89.1094 29.4922 88.9141 29.4141 88.7891 29.2734C88.5703 29.0547 88.3828 28.7656 88.2266 28.4062C88.0859 28.0469 87.9688 27.6641 87.875 27.2578C87.7969 26.8516 87.7344 26.4531 87.6875 26.0625C87.6562 25.6562 87.6406 25.3047 87.6406 25.0078C87.6406 24.5078 87.6719 24.0078 87.7344 23.5078C87.7969 23.0078 87.8906 22.5234 88.0156 22.0547V21.9375C88.0156 21.8594 88.0156 21.7969 88.0156 21.75C88.0312 21.6875 88.0391 21.6172 88.0391 21.5391C88.0391 21.4922 88.0312 21.4453 88.0156 21.3984C88.0156 21.3516 87.9922 21.3125 87.9453 21.2812C88.1484 20.7656 88.2969 20.2344 88.3906 19.6875C88.4844 19.1406 88.5547 18.5938 88.6016 18.0469C88.6641 17.4844 88.7266 16.9297 88.7891 16.3828C88.8672 15.8203 88.9766 15.2734 89.1172 14.7422C89.1016 14.6484 89.0859 14.5469 89.0703 14.4375C89.0703 14.3281 89.0703 14.2266 89.0703 14.1328C89.0703 13.8516 89.1016 13.5781 89.1641 13.3125C89.2266 13.0312 89.2656 12.7422 89.2812 12.4453C89.2969 12.3516 89.2969 12.2578 89.2812 12.1641C89.2656 12.0547 89.2578 11.9453 89.2578 11.8359C89.2578 11.1484 89.2891 10.4766 89.3516 9.82031C89.4297 9.16406 89.4688 8.5 89.4688 7.82812C89.4688 7.46875 89.4375 7.125 89.375 6.79688C89.3281 6.45312 89.3047 6.10938 89.3047 5.76562C89.3047 5.60938 89.3125 5.46094 89.3281 5.32031C89.3438 5.16406 89.3906 5.02344 89.4688 4.89844C89.8125 4.66406 90.2188 4.54688 90.6875 4.54688C91.0312 4.54688 91.3281 4.64062 91.5781 4.82812C91.5625 4.85938 91.5547 4.90625 91.5547 4.96875C91.5547 5.04688 91.5625 5.11719 91.5781 5.17969C91.5938 5.24219 91.6016 5.3125 91.6016 5.39062V5.48438C91.6016 5.51562 91.5938 5.54688 91.5781 5.57812C91.6875 5.76562 91.7578 5.96875 91.7891 6.1875C91.8359 6.39062 91.8594 6.60156 91.8594 6.82031C91.8594 7.02344 91.8516 7.22656 91.8359 7.42969C91.8203 7.61719 91.8125 7.8125 91.8125 8.01562C91.8125 8.29688 91.8125 8.57812 91.8125 8.85938C91.8281 9.14062 91.8359 9.42188 91.8359 9.70312C91.8359 10.4531 91.7969 11.1953 91.7188 11.9297C91.6562 12.6484 91.6094 13.3828 91.5781 14.1328C91.5469 14.7734 91.4609 15.3984 91.3203 16.0078C91.1953 16.6172 91.1094 17.2344 91.0625 17.8594C91.0469 17.9844 91.0391 18.1094 91.0391 18.2344C91.0547 18.3438 91.0625 18.4688 91.0625 18.6094C91.0625 18.9688 90.9922 19.3281 90.8516 19.6875C90.7109 20.0312 90.6406 20.3984 90.6406 20.7891C90.6406 20.9766 90.6719 21.1406 90.7344 21.2812C90.6406 21.5312 90.5547 21.8281 90.4766 22.1719C90.4141 22.5156 90.3516 22.875 90.2891 23.25C90.2422 23.6094 90.2031 23.9688 90.1719 24.3281C90.1406 24.6719 90.125 24.9766 90.125 25.2422C90.125 25.6172 90.1719 26 90.2656 26.3906C90.3594 26.7656 90.5156 27.1094 90.7344 27.4219C90.8906 27.4688 91.0781 27.4922 91.2969 27.4922C91.5156 27.4922 91.7344 27.5 91.9531 27.5156C92.1719 27.5312 92.375 27.5703 92.5625 27.6328C92.75 27.6953 92.8906 27.8203 92.9844 28.0078C93 28.0391 93.0078 28.0703 93.0078 28.1016V28.1719ZM122.891 23.0156C122.891 23.2188 122.836 23.4062 122.727 23.5781C122.617 23.7344 122.586 23.9219 122.633 24.1406C122.57 24.25 122.484 24.3359 122.375 24.3984C122.281 24.4609 122.25 24.5781 122.281 24.75C121.953 24.9219 121.648 25.1406 121.367 25.4062C121.102 25.6562 120.812 25.8984 120.5 26.1328C120.312 26.2734 120.148 26.375 120.008 26.4375C119.883 26.4844 119.727 26.5625 119.539 26.6719L118.953 27.0469C118.688 27.1875 118.414 27.3281 118.133 27.4688C117.867 27.6094 117.625 27.7891 117.406 28.0078C117.078 28.0234 116.742 28.1094 116.398 28.2656C116.055 28.4375 115.727 28.5859 115.414 28.7109C115.289 28.7578 115.164 28.7891 115.039 28.8047C114.914 28.8359 114.789 28.8828 114.664 28.9453L114.289 29.1094C114.07 29.2188 113.812 29.3281 113.516 29.4375C113.219 29.5625 112.953 29.625 112.719 29.625C112.578 29.6875 112.461 29.7969 112.367 29.9531C111.852 30.125 111.32 30.2578 110.773 30.3516C110.227 30.4453 109.695 30.5938 109.18 30.7969C109.008 30.875 108.828 30.9766 108.641 31.1016C108.469 31.2422 108.281 31.3047 108.078 31.2891C108.031 31.3672 108 31.4609 107.984 31.5703C107.969 31.6797 107.945 31.7891 107.914 31.8984H107.844C107.781 31.8984 107.75 31.8672 107.75 31.8047C107.766 31.7422 107.742 31.7109 107.68 31.7109C107.633 31.7109 107.602 31.7188 107.586 31.7344C107.383 31.7812 107.188 31.8203 107 31.8516C106.828 31.8828 106.633 31.8984 106.414 31.8984C106.289 31.8984 106.086 31.8828 105.805 31.8516C105.539 31.8203 105.344 31.7812 105.219 31.7344C105.125 31.6875 105.047 31.6016 104.984 31.4766C104.922 31.3516 104.859 31.2188 104.797 31.0781C104.75 30.9375 104.703 30.7891 104.656 30.6328C104.625 30.4922 104.594 30.375 104.562 30.2812C104.609 30.1094 104.688 29.9688 104.797 29.8594C104.906 29.75 104.992 29.6094 105.055 29.4375C105.195 29.4219 105.336 29.3984 105.477 29.3672C105.617 29.3359 105.758 29.3281 105.898 29.3438C106.383 29.2031 106.867 29.0625 107.352 28.9219C107.852 28.7969 108.344 28.6641 108.828 28.5234C109.312 28.3828 109.789 28.2266 110.258 28.0547C110.727 27.8828 111.18 27.6719 111.617 27.4219H112.109C112.391 27.2656 112.703 27.1328 113.047 27.0234C113.391 26.9141 113.672 26.7344 113.891 26.4844C114.406 26.375 114.945 26.2266 115.508 26.0391C116.07 25.8516 116.539 25.5547 116.914 25.1484C117.148 25.1172 117.352 25.0625 117.523 24.9844C117.695 24.8906 117.859 24.7969 118.016 24.7031L118.484 24.3984C118.641 24.2891 118.82 24.2031 119.023 24.1406C119.148 24.0156 119.266 23.8828 119.375 23.7422C119.484 23.6016 119.617 23.4844 119.773 23.3906C119.727 23.1406 119.602 22.9531 119.398 22.8281C119.195 22.7031 119.016 22.5547 118.859 22.3828H118.344C117.938 22.1328 117.5 21.9453 117.031 21.8203C116.578 21.6797 116.125 21.5312 115.672 21.375C115.641 21.3594 115.602 21.3516 115.555 21.3516C115.445 21.3516 115.375 21.3906 115.344 21.4688C115.328 21.5469 115.266 21.5781 115.156 21.5625C115.016 21.4688 114.867 21.4141 114.711 21.3984C114.555 21.3672 114.391 21.3516 114.219 21.3516C114 21.3516 113.781 21.3672 113.562 21.3984C113.359 21.4141 113.148 21.4219 112.93 21.4219C112.82 21.4219 112.711 21.4141 112.602 21.3984C112.492 21.3828 112.383 21.3438 112.273 21.2812H111.969C111.641 21.2812 111.312 21.2969 110.984 21.3281C110.672 21.3438 110.359 21.3516 110.047 21.3516C109.875 21.3516 109.711 21.3516 109.555 21.3516C109.398 21.3359 109.242 21.3125 109.086 21.2812C108.758 21.4375 108.406 21.5469 108.031 21.6094C107.656 21.6719 107.266 21.7188 106.859 21.75C106.469 21.7812 106.078 21.8125 105.688 21.8438C105.297 21.8594 104.922 21.8984 104.562 21.9609C104.469 21.9453 104.375 21.9375 104.281 21.9375C104.203 21.9219 104.125 21.9141 104.047 21.9141C103.969 21.9141 103.883 21.9219 103.789 21.9375C103.711 21.9375 103.633 21.9453 103.555 21.9609C103.352 21.7422 103.102 21.5859 102.805 21.4922C102.523 21.3828 102.242 21.3125 101.961 21.2812C101.742 21.0156 101.578 20.75 101.469 20.4844C101.375 20.2031 101.312 19.8906 101.281 19.5469H101.375C101.484 19.5469 101.531 19.4922 101.516 19.3828C101.516 19.2734 101.555 19.1797 101.633 19.1016C101.711 19.0078 101.812 18.9453 101.938 18.9141C102.078 18.8672 102.211 18.8203 102.336 18.7734C102.461 18.7266 102.578 18.6719 102.688 18.6094C102.812 18.5312 102.906 18.4141 102.969 18.2578H103.273C103.336 18.2578 103.398 18.2656 103.461 18.2812C103.539 18.2812 103.602 18.3047 103.648 18.3516C103.711 18.2891 103.789 18.2344 103.883 18.1875C103.977 18.1406 104.062 18.0938 104.141 18.0469C104.234 18 104.312 17.9453 104.375 17.8828C104.438 17.8203 104.477 17.7266 104.492 17.6016C104.508 17.6484 104.547 17.6719 104.609 17.6719C104.672 17.6719 104.727 17.6562 104.773 17.625C104.836 17.5938 104.906 17.5859 104.984 17.6016C105.062 17.3828 105.195 17.2656 105.383 17.25C105.57 17.2344 105.742 17.1797 105.898 17.0859C106.008 17.0234 106.109 16.9531 106.203 16.875C106.297 16.7812 106.398 16.6953 106.508 16.6172L107.914 15.5391L110.07 13.8984C110.789 13.3516 111.523 12.8438 112.273 12.375C112.305 12.2812 112.352 12.2109 112.414 12.1641C112.477 12.1172 112.539 12.0703 112.602 12.0234C112.664 11.9609 112.711 11.8984 112.742 11.8359C112.789 11.7734 112.805 11.6797 112.789 11.5547C113.008 11.5078 113.172 11.4219 113.281 11.2969C113.406 11.1719 113.516 11.0391 113.609 10.8984C113.703 10.7422 113.797 10.5938 113.891 10.4531C114 10.2969 114.141 10.1797 114.312 10.1016C114.297 10.0547 114.289 9.98438 114.289 9.89062C114.289 9.76562 114.297 9.64062 114.312 9.51562C114.344 9.39062 114.406 9.28125 114.5 9.1875C114.359 8.85938 114.117 8.625 113.773 8.48438C113.43 8.32812 113.102 8.19531 112.789 8.08594H112.719C112.641 8.08594 112.594 8.125 112.578 8.20312C112.578 8.26562 112.539 8.3125 112.461 8.34375C112.211 8.28125 111.93 8.25 111.617 8.25C111.305 8.25 110.992 8.27344 110.68 8.32031C110.383 8.36719 110.078 8.375 109.766 8.34375C109.719 8.40625 109.664 8.46875 109.602 8.53125C109.555 8.59375 109.492 8.64844 109.414 8.69531C109.086 8.71094 108.758 8.75781 108.43 8.83594L107.445 9.07031L106.906 9.1875C106.828 9.21875 106.773 9.27344 106.742 9.35156C106.711 9.42969 106.688 9.51562 106.672 9.60938C106.578 9.59375 106.516 9.55469 106.484 9.49219C106.469 9.42969 106.414 9.38281 106.32 9.35156C105.961 9.57031 105.57 9.75 105.148 9.89062C104.742 10.0312 104.375 10.25 104.047 10.5469C103.938 10.4219 103.781 10.3594 103.578 10.3594C103.406 10.3594 103.219 10.4141 103.016 10.5234C102.812 10.6328 102.688 10.7734 102.641 10.9453C102.484 10.9141 102.367 10.8984 102.289 10.8984C102.117 10.8984 101.969 10.9453 101.844 11.0391C101.734 11.1328 101.625 11.2422 101.516 11.3672C101.406 11.4766 101.289 11.5859 101.164 11.6953C101.039 11.8047 100.883 11.8672 100.695 11.8828C100.695 11.9609 100.695 12.0469 100.695 12.1406C100.711 12.2188 100.719 12.3047 100.719 12.3984C100.719 13.1016 100.68 13.8047 100.602 14.5078C100.523 15.1953 100.484 15.8906 100.484 16.5938C100.484 16.75 100.492 16.9062 100.508 17.0625C100.523 17.2031 100.531 17.3594 100.531 17.5312C100.531 17.5781 100.492 17.6797 100.414 17.8359C100.352 17.9922 100.305 18.1094 100.273 18.1875C100.336 18.3594 100.359 18.5312 100.344 18.7031C100.344 18.875 100.383 19.0391 100.461 19.1953C100.32 19.3203 100.25 19.4922 100.25 19.7109C100.25 19.8047 100.25 19.8984 100.25 19.9922C100.266 20.0859 100.273 20.1797 100.273 20.2734V20.5547C100.227 20.8672 100.195 21.1875 100.18 21.5156C100.164 21.8281 100.156 22.1406 100.156 22.4531C100.156 22.5938 100.156 22.8359 100.156 23.1797C100.172 23.5078 100.195 23.8828 100.227 24.3047C100.258 24.7109 100.305 25.1328 100.367 25.5703C100.43 26.0078 100.508 26.4141 100.602 26.7891C100.711 27.1484 100.844 27.4453 101 27.6797C101.156 27.9141 101.344 28.0312 101.562 28.0312C101.609 28.0312 101.664 28.0234 101.727 28.0078C101.805 27.9922 101.844 27.9531 101.844 27.8906C101.844 27.8281 101.828 27.7734 101.797 27.7266C101.781 27.6797 101.773 27.625 101.773 27.5625L101.797 27.5156C101.922 27.5781 102.055 27.6172 102.195 27.6328C102.352 27.6484 102.508 27.6641 102.664 27.6797C102.82 27.6953 102.969 27.7188 103.109 27.75C103.25 27.7969 103.375 27.8828 103.484 28.0078C103.422 28.1328 103.391 28.2656 103.391 28.4062C103.391 28.5938 103.438 28.7656 103.531 28.9219C103.625 29.0938 103.688 29.2656 103.719 29.4375C103.422 29.5312 103.148 29.6328 102.898 29.7422C102.664 29.8672 102.43 29.9766 102.195 30.0703C101.961 30.1797 101.711 30.2734 101.445 30.3516C101.18 30.4453 100.875 30.5078 100.531 30.5391C100.312 30.3984 100.125 30.2734 99.9688 30.1641C99.8125 30.0547 99.6016 29.9844 99.3359 29.9531C98.9297 29.4062 98.5938 28.7891 98.3281 28.1016C98.0625 27.4297 97.8516 26.7266 97.6953 25.9922C97.5547 25.2578 97.4531 24.5234 97.3906 23.7891C97.3438 23.0391 97.3203 22.3359 97.3203 21.6797C97.3203 20.9609 97.3438 20.25 97.3906 19.5469C97.4531 18.8281 97.5312 18.1094 97.625 17.3906C97.6562 17.1719 97.6875 16.9531 97.7188 16.7344C97.75 16.5 97.7812 16.2734 97.8125 16.0547C97.8438 15.9766 97.8672 15.8906 97.8828 15.7969C97.9141 15.6875 97.9297 15.5938 97.9297 15.5156C97.9297 15.25 97.9219 14.9844 97.9062 14.7188C97.8906 14.4531 97.8828 14.1953 97.8828 13.9453C97.8828 13.5547 97.9062 13.1562 97.9531 12.75C97.9688 12.6719 97.9922 12.5703 98.0234 12.4453C98.0703 12.3203 98.0938 12.2109 98.0938 12.1172C98.0938 11.9922 98.0625 11.9062 98 11.8594C97.9375 11.8125 97.8828 11.7344 97.8359 11.625C97.8828 11.4688 97.9219 11.3203 97.9531 11.1797C97.9844 11.0234 98 10.8672 98 10.7109C98 10.4141 97.9453 10.1562 97.8359 9.9375C97.9141 9.53125 98.0312 9.13281 98.1875 8.74219C98.3438 8.35156 98.6172 8.05469 99.0078 7.85156C99.3203 7.86719 99.6328 7.89844 99.9453 7.94531C100.273 7.99219 100.555 8.125 100.789 8.34375C100.898 8.28125 101.023 8.24219 101.164 8.22656L101.609 8.17969C101.766 8.16406 101.906 8.14062 102.031 8.10938C102.156 8.0625 102.266 7.97656 102.359 7.85156C102.672 7.78906 103.008 7.70312 103.367 7.59375C103.727 7.46875 104.039 7.32812 104.305 7.17188H104.82C104.93 7.09375 105.055 7.03906 105.195 7.00781L105.641 6.89062C105.797 6.84375 105.938 6.79688 106.062 6.75C106.203 6.70312 106.312 6.625 106.391 6.51562H106.484C106.844 6.51562 107.195 6.4375 107.539 6.28125C107.883 6.125 108.219 5.98438 108.547 5.85938C108.625 5.82812 108.742 5.77344 108.898 5.69531C109.07 5.61719 109.188 5.57812 109.25 5.57812C109.469 5.54688 109.688 5.53125 109.906 5.53125C110.125 5.51562 110.344 5.48438 110.562 5.4375C111.062 5.35938 111.555 5.27344 112.039 5.17969C112.539 5.07031 113.039 5.01562 113.539 5.01562C113.711 5.01562 113.867 5.02344 114.008 5.03906C114.164 5.03906 114.328 5.04688 114.5 5.0625C114.516 5.125 114.555 5.17969 114.617 5.22656C114.68 5.25781 114.734 5.28906 114.781 5.32031C114.844 5.35156 114.898 5.39844 114.945 5.46094C114.992 5.50781 115.008 5.57812 114.992 5.67188C115.023 5.70312 115.055 5.71875 115.086 5.71875C115.133 5.71875 115.172 5.69531 115.203 5.64844C115.25 5.60156 115.312 5.57812 115.391 5.57812H115.508C115.711 5.79688 115.906 6.00781 116.094 6.21094C116.297 6.39844 116.547 6.55469 116.844 6.67969C116.969 7.14844 117.117 7.60938 117.289 8.0625C117.461 8.51562 117.547 9 117.547 9.51562C117.547 9.82812 117.5 10.1328 117.406 10.4297C117.188 10.5391 117.031 10.7109 116.938 10.9453C116.844 11.1797 116.758 11.4062 116.68 11.625C116.242 11.8438 115.875 12.1328 115.578 12.4922C115.281 12.8516 114.977 13.2109 114.664 13.5703H114.289C114.227 13.5703 114.18 13.5938 114.148 13.6406L113.938 13.875C113.797 14 113.641 14.125 113.469 14.25C113.312 14.375 113.195 14.5391 113.117 14.7422C112.633 15.0078 112.164 15.3047 111.711 15.6328C111.273 15.9609 110.852 16.3047 110.445 16.6641C110.273 16.8047 110.102 16.9688 109.93 17.1562C109.758 17.3281 109.586 17.4766 109.414 17.6016C109.32 17.6797 109.211 17.75 109.086 17.8125C108.977 17.8594 108.875 17.9219 108.781 18C108.578 18.1562 108.391 18.3203 108.219 18.4922C108.047 18.6484 107.867 18.7969 107.68 18.9375C108.383 18.9062 109.094 18.8906 109.812 18.8906C110.531 18.875 111.242 18.8594 111.945 18.8438C112.305 18.8438 112.656 18.8359 113 18.8203C113.344 18.7891 113.695 18.7734 114.055 18.7734C114.117 18.7734 114.172 18.7891 114.219 18.8203C114.266 18.8359 114.32 18.8516 114.383 18.8672C114.648 18.9141 114.883 18.9688 115.086 19.0312C115.836 19.1719 116.586 19.2969 117.336 19.4062C118.086 19.5156 118.82 19.6953 119.539 19.9453C119.742 20.0234 119.891 20.1094 119.984 20.2031C120.094 20.2969 120.281 20.3203 120.547 20.2734C120.766 20.4922 121 20.6641 121.25 20.7891C121.516 20.9141 121.781 21.0234 122.047 21.1172C122.25 21.4297 122.438 21.7266 122.609 22.0078C122.797 22.2891 122.891 22.625 122.891 23.0156Z" fill="#3B597A"/>
</svg>
